<svg width="389" height="19" viewBox="0 0 389 19" fill="none" xmlns="http://www.w3.org/2000/svg">
<path d="M5.48 15.2C9.14 15.2 10.84 13.34 10.84 9.28V1.6H8.6V9.3C8.6 11.96 7.74 13.04 5.5 13.04C3.3 13.04 2.4 11.96 2.4 9.3V1.6H0.16V9.28C0.16 13.34 1.9 15.2 5.48 15.2ZM15.9394 15V1.6H13.6794V15H15.9394ZM26.1219 15.22C27.5419 15.22 28.5019 14.56 28.9219 13.94L28.2219 11.94C27.9419 12.5 27.3819 13.12 26.6219 13.12C25.9619 13.12 25.4619 12.86 25.4619 11.8V7H28.4419V5.26H25.4619V2.66L23.2219 4.08V5.26H21.7019V7H23.2219V12.34C23.2219 14.06 24.2819 15.22 26.1219 15.22ZM34.1094 15.2C36.2694 15.2 37.5894 14.22 38.3294 13.1L36.9494 11.66C36.5894 12.48 35.8294 13.36 34.1294 13.36C32.5894 13.36 31.5694 12.42 31.4494 10.68H38.4094C38.4494 10.48 38.4894 10.06 38.4894 9.7C38.4894 7 36.8694 5.06 33.9494 5.06C31.2094 5.06 29.3094 7.08 29.3094 10.14C29.3094 13.18 31.2094 15.2 34.1094 15.2ZM33.9494 6.86C35.4294 6.86 36.3094 7.7 36.4694 9.24H31.4694C31.6494 7.66 32.5694 6.86 33.9494 6.86ZM41.2108 15L42.6508 12.72L43.5508 11.2L44.4708 12.74L45.9108 15H48.4708L45.1908 10.08L48.5708 5.26H46.0108L44.5708 7.52L43.7108 9.02L42.8108 7.46L41.4108 5.26H38.8508L42.0908 10.12L38.6508 15H41.2108ZM53.0359 15.22C54.4559 15.22 55.4159 14.56 55.8359 13.94L55.1359 11.94C54.8559 12.5 54.2959 13.12 53.5359 13.12C52.8759 13.12 52.3759 12.86 52.3759 11.8V7H55.3559V5.26H52.3759V2.66L50.1359 4.08V5.26H48.6159V7H50.1359V12.34C50.1359 14.06 51.1959 15.22 53.0359 15.22ZM65.4109 15.2C67.4709 15.2 69.0909 14.24 69.0909 12.32C69.0909 10.92 68.2909 10.04 66.1109 9.48L64.9309 9.18C63.6109 8.84 63.0909 8.58 63.0909 7.88C63.0909 7.22 63.6709 6.86 64.5309 6.86C65.7909 6.86 66.8309 7.5 67.5109 8.58L68.8309 7.18C68.2309 6.08 66.7709 5.08 64.6909 5.08C62.4509 5.08 60.9909 6.18 60.9909 8C60.9909 9.78 62.4109 10.46 63.9509 10.82L65.2509 11.14C66.3309 11.4 67.0709 11.64 67.0709 12.36C67.0709 13.06 66.4509 13.4 65.4909 13.4C63.7509 13.4 62.5509 12.4 62.0109 11.42L60.6909 12.82C61.4309 14.36 63.3309 15.2 65.4109 15.2ZM74.1883 15.22C75.6083 15.22 76.5683 14.56 76.9883 13.94L76.2883 11.94C76.0083 12.5 75.4483 13.12 74.6883 13.12C74.0283 13.12 73.5283 12.86 73.5283 11.8V7H76.5083V5.26H73.5283V2.66L71.2883 4.08V5.26H69.7683V7H71.2883V12.34C71.2883 14.06 72.3483 15.22 74.1883 15.22ZM79.8339 18.34C81.4139 18.34 82.5539 17.64 83.2539 15.68L86.8539 5.26H84.3739L82.6339 10.78L81.9339 13.38L81.2339 10.78L79.4739 5.26H77.0139L80.2339 14.4H81.6139L81.4339 14.94C81.0739 16.02 80.5939 16.36 79.8339 16.36C78.9339 16.36 78.3339 15.8 77.8139 15.06L76.7539 16.86C77.2939 17.62 78.4339 18.34 79.8339 18.34ZM90.3692 15V1.6H88.1292V15H90.3692ZM97.0586 15.2C99.2186 15.2 100.539 14.22 101.279 13.1L99.8986 11.66C99.5386 12.48 98.7786 13.36 97.0786 13.36C95.5386 13.36 94.5186 12.42 94.3986 10.68H101.359C101.399 10.48 101.439 10.06 101.439 9.7C101.439 7 99.8186 5.06 96.8986 5.06C94.1586 5.06 92.2586 7.08 92.2586 10.14C92.2586 13.18 94.1586 15.2 97.0586 15.2ZM96.8986 6.86C98.3786 6.86 99.2586 7.7 99.4186 9.24H94.4186C94.5986 7.66 95.5186 6.86 96.8986 6.86ZM111.702 15V1.6H109.722C109.042 2.46 108.102 2.8 107.002 2.8V4.44H109.442V15H111.702ZM119.527 15.8L124.727 0.799999H122.667L117.467 15.8H119.527ZM140.393 15V13H135.253L133.253 13.2L134.813 12.04L136.673 10.4C138.093 9.22 140.013 7.36 140.013 5.2C140.013 3 138.693 1.4 135.993 1.4C132.913 1.4 130.733 3.36 130.793 6.04L132.693 7.4C132.573 4.82 133.813 3.56 135.793 3.56C137.093 3.56 137.653 4.38 137.653 5.34C137.653 6.6 136.733 7.62 135.433 8.88L130.813 13.28V15H140.393ZM147.494 15.18C151.234 15.18 153.114 12.22 153.114 8.28C153.114 4.36 151.234 1.4 147.494 1.4C143.754 1.4 141.854 4.36 141.854 8.28C141.854 12.22 143.754 15.18 147.494 15.18ZM147.494 13.02C145.114 13.02 144.234 11.1 144.234 8.28C144.234 5.48 145.114 3.54 147.494 3.54C149.894 3.54 150.754 5.48 150.754 8.28C150.754 11.1 149.894 13.02 147.494 13.02ZM159.839 10.36V8.64H154.819V10.36H159.839ZM171.428 15V13H166.288L164.288 13.2L165.848 12.04L167.708 10.4C169.128 9.22 171.048 7.36 171.048 5.2C171.048 3 169.728 1.4 167.028 1.4C163.948 1.4 161.768 3.36 161.828 6.04L163.728 7.4C163.608 4.82 164.848 3.56 166.828 3.56C168.128 3.56 168.688 4.38 168.688 5.34C168.688 6.6 167.768 7.62 166.468 8.88L161.848 13.28V15H171.428ZM181.533 15V11.98H183.793V10.02H181.533V1.6H179.153L172.593 10.24V11.98H179.293V15H181.533ZM175.073 10.02L179.293 4.52V10.02H175.073ZM195.734 15C198.614 15 200.394 13.82 200.394 11.44C200.394 9.64 199.314 8.28 196.274 8.04C198.434 7.86 199.834 6.8 199.834 5.02C199.834 3.04 198.554 1.6 195.834 1.6H189.754V15H195.734ZM195.154 3.6C196.554 3.6 197.494 4.04 197.494 5.4C197.494 6.76 196.574 7.18 195.234 7.18H192.014V3.6H195.154ZM195.454 9.08C197.014 9.08 198.074 9.68 198.074 11.04C198.074 12.4 197.234 13 195.394 13H192.014V9.08H195.454ZM206.507 15.2C209.347 15.2 211.267 13.16 211.267 10.14C211.267 7.1 209.347 5.06 206.507 5.06C203.707 5.06 201.787 7.1 201.787 10.14C201.787 13.16 203.707 15.2 206.507 15.2ZM206.527 13.34C205.087 13.34 204.087 12.38 204.087 10.14C204.087 7.88 205.087 6.92 206.527 6.92C207.987 6.92 208.987 7.88 208.987 10.14C208.987 12.38 207.987 13.34 206.527 13.34ZM215.467 15V1.6H213.227V15H215.467ZM221.216 15.22C223.156 15.22 223.976 13.92 224.296 12.42V15H226.536V1.6H224.296V7.88C223.976 6.36 223.116 5.06 221.176 5.06C218.816 5.06 217.296 7 217.296 10.14C217.296 13.28 218.816 15.22 221.216 15.22ZM219.596 10.14C219.596 7.96 220.656 6.88 222.056 6.88C223.636 6.88 224.296 7.94 224.296 9.54V10.76C224.296 12.36 223.636 13.4 222.076 13.4C220.656 13.4 219.596 12.34 219.596 10.14ZM234.351 15.8L239.551 0.799999H237.491L232.291 15.8H234.351ZM251.457 15.16C254.417 15.16 256.457 13.62 257.397 11.02L255.437 9.58C255.017 11.58 253.777 13.02 251.477 13.02C248.717 13.02 247.417 11.04 247.417 8.28C247.417 5.5 248.717 3.54 251.477 3.54C253.777 3.54 255.017 4.96 255.437 6.98L257.397 5.54C256.457 2.92 254.417 1.4 251.457 1.4C247.337 1.4 245.017 4.42 245.017 8.28C245.017 12.14 247.337 15.16 251.457 15.16ZM261.342 15.2C263.382 15.2 264.322 13.68 264.622 12.4V13.12C264.622 14.52 265.442 15 266.482 15H267.862V13.08H267.242C266.882 13.08 266.722 12.94 266.722 12.5V8.84C266.722 6.44 265.362 5.06 262.942 5.06C260.782 5.06 259.262 6.18 258.502 7.22L259.842 8.82C260.402 7.8 261.422 7.04 262.722 7.04C264.062 7.04 264.502 7.7 264.582 8.68L261.322 10.06C259.742 10.68 258.782 11.52 258.782 12.9C258.782 14.3 259.742 15.2 261.342 15.2ZM260.942 12.56C260.942 12.06 261.282 11.72 262.122 11.34L264.622 10.22V11.26C264.622 12.58 263.622 13.46 262.142 13.46C261.322 13.46 260.942 13.12 260.942 12.56ZM271.815 15V12.42C272.135 13.92 272.955 15.22 274.895 15.22C277.315 15.22 278.835 13.28 278.835 10.14C278.835 7 277.315 5.06 274.935 5.06C272.995 5.06 272.135 6.36 271.815 7.88V1.6H269.575V15H271.815ZM271.815 10.76V9.54C271.815 7.94 272.475 6.88 274.055 6.88C275.475 6.88 276.535 7.96 276.535 10.14C276.535 12.34 275.475 13.4 274.055 13.4C272.475 13.4 271.815 12.36 271.815 10.76ZM282.908 3.88V1.6H280.668V3.88H282.908ZM282.908 15V5.26H280.668V15H282.908ZM287.518 15V9.54C287.518 7.94 288.078 6.88 289.718 6.88C291.218 6.88 291.618 7.7 291.618 8.9V15H293.878V8.22C293.878 6.2 292.718 5.06 290.818 5.06C288.878 5.06 287.878 6.38 287.518 7.92V5.26H285.278V15H287.518ZM300.457 15.2C302.617 15.2 303.937 14.22 304.677 13.1L303.297 11.66C302.937 12.48 302.177 13.36 300.477 13.36C298.937 13.36 297.917 12.42 297.797 10.68H304.757C304.797 10.48 304.837 10.06 304.837 9.7C304.837 7 303.217 5.06 300.297 5.06C297.557 5.06 295.657 7.08 295.657 10.14C295.657 13.18 297.557 15.2 300.457 15.2ZM300.297 6.86C301.777 6.86 302.657 7.7 302.817 9.24H297.817C297.997 7.66 298.917 6.86 300.297 6.86ZM310.145 15.22C311.565 15.22 312.525 14.56 312.945 13.94L312.245 11.94C311.965 12.5 311.405 13.12 310.645 13.12C309.985 13.12 309.485 12.86 309.485 11.8V7H312.465V5.26H309.485V2.66L307.245 4.08V5.26H305.725V7H307.245V12.34C307.245 14.06 308.305 15.22 310.145 15.22ZM323.7 15.16C326.68 15.16 328.38 12.98 328.48 9.96L329.1 15H330.54V8.06H324.42V9.96H328.28C327.8 11.82 326.8 13.04 324.54 13.04C321.9 13.04 320.6 11.12 320.6 8.28C320.6 5.5 321.88 3.54 324.68 3.54C326.84 3.54 328.12 4.86 328.52 6.58L330.48 5.18C329.56 2.76 327.48 1.4 324.66 1.4C320.5 1.4 318.2 4.34 318.2 8.28C318.2 12.54 320.26 15.16 323.7 15.16ZM335.115 15V9.64C335.115 8.02 336.155 6.74 337.275 6.74C337.935 6.74 338.195 7.18 338.195 7.72C338.195 8.28 337.895 8.92 337.575 9.24H339.875C340.055 8.94 340.315 8.24 340.315 7.3C340.315 5.86 339.415 5.06 338.195 5.06C336.455 5.06 335.475 6.46 335.115 8.02V5.26H332.875V15H335.115ZM345.667 15.2C348.507 15.2 350.427 13.16 350.427 10.14C350.427 7.1 348.507 5.06 345.667 5.06C342.867 5.06 340.947 7.1 340.947 10.14C340.947 13.16 342.867 15.2 345.667 15.2ZM345.687 13.34C344.247 13.34 343.247 12.38 343.247 10.14C343.247 7.88 344.247 6.92 345.687 6.92C347.147 6.92 348.147 7.88 348.147 10.14C348.147 12.38 347.147 13.34 345.687 13.34ZM355.692 15.22C357.112 15.22 358.072 14.56 358.492 13.94L357.792 11.94C357.512 12.5 356.952 13.12 356.192 13.12C355.532 13.12 355.032 12.86 355.032 11.8V7H358.012V5.26H355.032V2.66L352.792 4.08V5.26H351.272V7H352.792V12.34C352.792 14.06 353.852 15.22 355.692 15.22ZM363.68 15.2C365.84 15.2 367.16 14.22 367.9 13.1L366.52 11.66C366.16 12.48 365.4 13.36 363.7 13.36C362.16 13.36 361.14 12.42 361.02 10.68H367.98C368.02 10.48 368.06 10.06 368.06 9.7C368.06 7 366.44 5.06 363.52 5.06C360.78 5.06 358.88 7.08 358.88 10.14C358.88 13.18 360.78 15.2 363.68 15.2ZM363.52 6.86C365 6.86 365.88 7.7 366.04 9.24H361.04C361.22 7.66 362.14 6.86 363.52 6.86ZM373.868 15.2C375.928 15.2 377.548 14.24 377.548 12.32C377.548 10.92 376.748 10.04 374.568 9.48L373.388 9.18C372.068 8.84 371.548 8.58 371.548 7.88C371.548 7.22 372.128 6.86 372.988 6.86C374.248 6.86 375.288 7.5 375.968 8.58L377.288 7.18C376.688 6.08 375.228 5.08 373.148 5.08C370.908 5.08 369.448 6.18 369.448 8C369.448 9.78 370.868 10.46 372.408 10.82L373.708 11.14C374.788 11.4 375.528 11.64 375.528 12.36C375.528 13.06 374.908 13.4 373.948 13.4C372.208 13.4 371.008 12.4 370.468 11.42L369.148 12.82C369.888 14.36 371.788 15.2 373.868 15.2ZM381.561 15V11.88L383.021 10.44L385.861 15H388.481L384.541 9.1L388.481 5.26H385.741L383.081 7.86L381.481 9.62L381.561 7.74V1.6H379.321V15H381.561Z" fill="black"/>
</svg>
