<svg width="347" height="15" viewBox="0 0 347 15" fill="none" xmlns="http://www.w3.org/2000/svg">
<path d="M5.184 12.16C8.112 12.16 9.472 10.672 9.472 7.424V1.28H7.68V7.44C7.68 9.568 6.992 10.432 5.2 10.432C3.44 10.432 2.72 9.568 2.72 7.44V1.28H0.928V7.424C0.928 10.672 2.32 12.16 5.184 12.16ZM13.5515 12V1.28H11.7435V12H13.5515ZM21.6975 12.176C22.8335 12.176 23.6015 11.648 23.9375 11.152L23.3775 9.552C23.1535 10 22.7055 10.496 22.0975 10.496C21.5695 10.496 21.1695 10.288 21.1695 9.44V5.6H23.5535V4.208H21.1695V2.128L19.3775 3.264V4.208H18.1615V5.6H19.3775V9.872C19.3775 11.248 20.2255 12.176 21.6975 12.176ZM28.0875 12.16C29.8155 12.16 30.8715 11.376 31.4635 10.48L30.3595 9.328C30.0715 9.984 29.4635 10.688 28.1035 10.688C26.8715 10.688 26.0555 9.936 25.9595 8.544H31.5275C31.5595 8.384 31.5915 8.048 31.5915 7.76C31.5915 5.6 30.2955 4.048 27.9595 4.048C25.7675 4.048 24.2475 5.664 24.2475 8.112C24.2475 10.544 25.7675 12.16 28.0875 12.16ZM27.9595 5.488C29.1435 5.488 29.8475 6.16 29.9755 7.392H25.9755C26.1195 6.128 26.8555 5.488 27.9595 5.488ZM33.7686 12L34.9206 10.176L35.6406 8.96L36.3766 10.192L37.5286 12H39.5766L36.9526 8.064L39.6566 4.208H37.6086L36.4566 6.016L35.7686 7.216L35.0486 5.968L33.9286 4.208H31.8806L34.4726 8.096L31.7206 12H33.7686ZM43.2288 12.176C44.3648 12.176 45.1328 11.648 45.4688 11.152L44.9088 9.552C44.6848 10 44.2368 10.496 43.6288 10.496C43.1008 10.496 42.7008 10.288 42.7008 9.44V5.6H45.0848V4.208H42.7008V2.128L40.9088 3.264V4.208H39.6928V5.6H40.9088V9.872C40.9088 11.248 41.7568 12.176 43.2288 12.176ZM53.1288 12.16C54.7768 12.16 56.0728 11.392 56.0728 9.856C56.0728 8.736 55.4328 8.032 53.6888 7.584L52.7448 7.344C51.6888 7.072 51.2728 6.864 51.2728 6.304C51.2728 5.776 51.7368 5.488 52.4248 5.488C53.4328 5.488 54.2648 6 54.8088 6.864L55.8648 5.744C55.3848 4.864 54.2168 4.064 52.5528 4.064C50.7608 4.064 49.5928 4.944 49.5928 6.4C49.5928 7.824 50.7288 8.368 51.9608 8.656L53.0008 8.912C53.8648 9.12 54.4568 9.312 54.4568 9.888C54.4568 10.448 53.9608 10.72 53.1927 10.72C51.8008 10.72 50.8408 9.92 50.4088 9.136L49.3528 10.256C49.9448 11.488 51.4648 12.16 53.1288 12.16ZM60.1506 12.176C61.2866 12.176 62.0546 11.648 62.3906 11.152L61.8306 9.552C61.6066 10 61.1586 10.496 60.5506 10.496C60.0226 10.496 59.6226 10.288 59.6226 9.44V5.6H62.0066V4.208H59.6226V2.128L57.8306 3.264V4.208H56.6146V5.6H57.8306V9.872C57.8306 11.248 58.6786 12.176 60.1506 12.176ZM64.6671 14.672C65.9311 14.672 66.8431 14.112 67.4031 12.544L70.2831 4.208H68.2991L66.9071 8.624L66.3471 10.704L65.7871 8.624L64.3791 4.208H62.4111L64.9871 11.52H66.0911L65.9471 11.952C65.6591 12.816 65.2751 13.088 64.6671 13.088C63.9471 13.088 63.4671 12.64 63.0511 12.048L62.2031 13.488C62.6351 14.096 63.5471 14.672 64.6671 14.672ZM73.0954 12V1.28H71.3034V12H73.0954ZM78.4469 12.16C80.1749 12.16 81.2309 11.376 81.8229 10.48L80.7189 9.328C80.4309 9.984 79.8229 10.688 78.4629 10.688C77.2309 10.688 76.4149 9.936 76.3189 8.544H81.8869C81.9189 8.384 81.9509 8.048 81.9509 7.76C81.9509 5.6 80.6549 4.048 78.3189 4.048C76.1269 4.048 74.6069 5.664 74.6069 8.112C74.6069 10.544 76.1269 12.16 78.4469 12.16ZM78.3189 5.488C79.5029 5.488 80.2069 6.16 80.3349 7.392H76.3349C76.4789 6.128 77.2149 5.488 78.3189 5.488ZM94.8015 12V10.4H90.6895L89.0895 10.56L90.3375 9.632L91.8255 8.32C92.9615 7.376 94.4975 5.888 94.4975 4.16C94.4975 2.4 93.4415 1.12 91.2815 1.12C88.8175 1.12 87.0735 2.688 87.1215 4.832L88.6415 5.92C88.5455 3.856 89.5375 2.848 91.1215 2.848C92.1615 2.848 92.6095 3.504 92.6095 4.272C92.6095 5.28 91.8735 6.096 90.8335 7.104L87.1375 10.624V12H94.8015ZM104.621 12C106.925 12 108.349 11.056 108.349 9.152C108.349 7.712 107.485 6.624 105.053 6.432C106.781 6.288 107.901 5.44 107.901 4.016C107.901 2.432 106.877 1.28 104.701 1.28H99.8372V12H104.621ZM104.157 2.88C105.277 2.88 106.029 3.232 106.029 4.32C106.029 5.408 105.293 5.744 104.221 5.744H101.645V2.88H104.157ZM104.397 7.264C105.645 7.264 106.493 7.744 106.493 8.832C106.493 9.92 105.821 10.4 104.349 10.4H101.645V7.264H104.397ZM113.24 12.16C115.512 12.16 117.048 10.528 117.048 8.112C117.048 5.68 115.512 4.048 113.24 4.048C111 4.048 109.464 5.68 109.464 8.112C109.464 10.528 111 12.16 113.24 12.16ZM113.256 10.672C112.104 10.672 111.304 9.904 111.304 8.112C111.304 6.304 112.104 5.536 113.256 5.536C114.424 5.536 115.224 6.304 115.224 8.112C115.224 9.904 114.424 10.672 113.256 10.672ZM120.408 12V1.28H118.616V12H120.408ZM125.007 12.176C126.559 12.176 127.215 11.136 127.471 9.936V12H129.263V1.28H127.471V6.304C127.215 5.088 126.527 4.048 124.975 4.048C123.087 4.048 121.871 5.6 121.871 8.112C121.871 10.624 123.087 12.176 125.007 12.176ZM123.711 8.112C123.711 6.368 124.559 5.504 125.679 5.504C126.943 5.504 127.471 6.352 127.471 7.632V8.608C127.471 9.888 126.943 10.72 125.695 10.72C124.559 10.72 123.711 9.872 123.711 8.112ZM135.515 12.64L139.675 0.639999H138.027L133.867 12.64H135.515ZM147.568 12V1.28H145.984C145.44 1.968 144.688 2.24 143.808 2.24V3.552H145.76V12H147.568ZM153.508 12.16C155.812 12.16 157.396 10.608 157.396 8.448C157.396 6.512 156.42 5.008 154.26 5.008C152.612 5.008 151.524 5.952 151.3 7.536V6.512C151.3 3.664 152.388 2.896 153.636 2.896C154.708 2.896 155.492 3.488 155.972 4.448L157.204 2.96C156.532 1.872 155.316 1.12 153.732 1.12C150.868 1.12 149.348 3.072 149.348 6.512V6.688C149.348 10.672 150.932 12.16 153.508 12.16ZM153.46 10.448C152.18 10.448 151.428 9.76 151.428 8.288C151.428 7.072 152.228 6.416 153.492 6.416C154.852 6.416 155.46 7.232 155.46 8.448C155.46 9.584 154.708 10.448 153.46 10.448ZM162.999 8.288V6.912H158.983V8.288H162.999ZM172.27 12V10.4H168.158L166.558 10.56L167.806 9.632L169.294 8.32C170.43 7.376 171.966 5.888 171.966 4.16C171.966 2.4 170.91 1.12 168.75 1.12C166.286 1.12 164.542 2.688 164.59 4.832L166.11 5.92C166.014 3.856 167.006 2.848 168.59 2.848C169.63 2.848 170.078 3.504 170.078 4.272C170.078 5.28 169.342 6.096 168.302 7.104L164.606 10.624V12H172.27ZM177.951 12.144C180.943 12.144 182.447 9.776 182.447 6.624C182.447 3.488 180.943 1.12 177.951 1.12C174.959 1.12 173.439 3.488 173.439 6.624C173.439 9.776 174.959 12.144 177.951 12.144ZM177.951 10.416C176.047 10.416 175.343 8.88 175.343 6.624C175.343 4.384 176.047 2.832 177.951 2.832C179.871 2.832 180.559 4.384 180.559 6.624C180.559 8.88 179.871 10.416 177.951 10.416ZM192.356 12C194.66 12 196.084 11.056 196.084 9.152C196.084 7.712 195.22 6.624 192.788 6.432C194.516 6.288 195.636 5.44 195.636 4.016C195.636 2.432 194.612 1.28 192.436 1.28H187.572V12H192.356ZM191.892 2.88C193.012 2.88 193.764 3.232 193.764 4.32C193.764 5.408 193.028 5.744 191.956 5.744H189.38V2.88H191.892ZM192.132 7.264C193.38 7.264 194.228 7.744 194.228 8.832C194.228 9.92 193.556 10.4 192.084 10.4H189.38V7.264H192.132ZM200.974 12.16C203.246 12.16 204.782 10.528 204.782 8.112C204.782 5.68 203.246 4.048 200.974 4.048C198.734 4.048 197.198 5.68 197.198 8.112C197.198 10.528 198.734 12.16 200.974 12.16ZM200.99 10.672C199.838 10.672 199.038 9.904 199.038 8.112C199.038 6.304 199.838 5.536 200.99 5.536C202.158 5.536 202.958 6.304 202.958 8.112C202.958 9.904 202.158 10.672 200.99 10.672ZM208.142 12V1.28H206.35V12H208.142ZM212.742 12.176C214.294 12.176 214.95 11.136 215.206 9.936V12H216.998V1.28H215.206V6.304C214.95 5.088 214.262 4.048 212.71 4.048C210.822 4.048 209.606 5.6 209.606 8.112C209.606 10.624 210.822 12.176 212.742 12.176ZM211.446 8.112C211.446 6.368 212.294 5.504 213.414 5.504C214.678 5.504 215.206 6.352 215.206 7.632V8.608C215.206 9.888 214.678 10.72 213.43 10.72C212.294 10.72 211.446 9.872 211.446 8.112ZM223.25 12.64L227.41 0.639999H225.762L221.602 12.64H223.25ZM236.934 12.128C239.302 12.128 240.934 10.896 241.686 8.816L240.118 7.664C239.782 9.264 238.79 10.416 236.95 10.416C234.742 10.416 233.702 8.832 233.702 6.624C233.702 4.4 234.742 2.832 236.95 2.832C238.79 2.832 239.782 3.968 240.118 5.584L241.686 4.432C240.934 2.336 239.302 1.12 236.934 1.12C233.638 1.12 231.782 3.536 231.782 6.624C231.782 9.712 233.638 12.128 236.934 12.128ZM244.842 12.16C246.474 12.16 247.226 10.944 247.466 9.92V10.496C247.466 11.616 248.122 12 248.954 12H250.058V10.464H249.562C249.274 10.464 249.146 10.352 249.146 10V7.072C249.146 5.152 248.058 4.048 246.122 4.048C244.394 4.048 243.178 4.944 242.57 5.776L243.642 7.056C244.09 6.24 244.906 5.632 245.946 5.632C247.018 5.632 247.37 6.16 247.434 6.944L244.826 8.048C243.562 8.544 242.794 9.216 242.794 10.32C242.794 11.44 243.562 12.16 244.842 12.16ZM244.522 10.048C244.522 9.648 244.794 9.376 245.466 9.072L247.466 8.176V9.008C247.466 10.064 246.666 10.768 245.482 10.768C244.826 10.768 244.522 10.496 244.522 10.048ZM253.22 12V9.936C253.476 11.136 254.132 12.176 255.684 12.176C257.62 12.176 258.836 10.624 258.836 8.112C258.836 5.6 257.62 4.048 255.716 4.048C254.164 4.048 253.476 5.088 253.22 6.304V1.28H251.428V12H253.22ZM253.22 8.608V7.632C253.22 6.352 253.748 5.504 255.012 5.504C256.148 5.504 256.996 6.368 256.996 8.112C256.996 9.872 256.148 10.72 255.012 10.72C253.748 10.72 253.22 9.888 253.22 8.608ZM262.095 3.104V1.28H260.303V3.104H262.095ZM262.095 12V4.208H260.303V12H262.095ZM265.783 12V7.632C265.783 6.352 266.231 5.504 267.543 5.504C268.743 5.504 269.063 6.16 269.063 7.12V12H270.871V6.576C270.871 4.96 269.943 4.048 268.423 4.048C266.871 4.048 266.071 5.104 265.783 6.336V4.208H263.991V12H265.783ZM276.134 12.16C277.862 12.16 278.918 11.376 279.51 10.48L278.406 9.328C278.118 9.984 277.51 10.688 276.15 10.688C274.918 10.688 274.102 9.936 274.006 8.544H279.574C279.606 8.384 279.638 8.048 279.638 7.76C279.638 5.6 278.342 4.048 276.006 4.048C273.814 4.048 272.294 5.664 272.294 8.112C272.294 10.544 273.814 12.16 276.134 12.16ZM276.006 5.488C277.19 5.488 277.894 6.16 278.022 7.392H274.022C274.166 6.128 274.902 5.488 276.006 5.488ZM283.885 12.176C285.021 12.176 285.789 11.648 286.125 11.152L285.565 9.552C285.341 10 284.893 10.496 284.285 10.496C283.757 10.496 283.357 10.288 283.357 9.44V5.6H285.741V4.208H283.357V2.128L281.565 3.264V4.208H280.349V5.6H281.565V9.872C281.565 11.248 282.413 12.176 283.885 12.176ZM294.729 12.128C297.113 12.128 298.473 10.384 298.553 7.968L299.049 12H300.201V6.448H295.305V7.968H298.393C298.009 9.456 297.209 10.432 295.401 10.432C293.289 10.432 292.249 8.896 292.249 6.624C292.249 4.4 293.273 2.832 295.513 2.832C297.241 2.832 298.265 3.888 298.585 5.264L300.153 4.144C299.417 2.208 297.753 1.12 295.497 1.12C292.169 1.12 290.329 3.472 290.329 6.624C290.329 10.032 291.977 12.128 294.729 12.128ZM303.861 12V7.712C303.861 6.416 304.693 5.392 305.589 5.392C306.117 5.392 306.325 5.744 306.325 6.176C306.325 6.624 306.085 7.136 305.829 7.392H307.669C307.813 7.152 308.021 6.592 308.021 5.84C308.021 4.688 307.301 4.048 306.325 4.048C304.933 4.048 304.149 5.168 303.861 6.416V4.208H302.069V12H303.861ZM312.302 12.16C314.574 12.16 316.11 10.528 316.11 8.112C316.11 5.68 314.574 4.048 312.302 4.048C310.062 4.048 308.526 5.68 308.526 8.112C308.526 10.528 310.062 12.16 312.302 12.16ZM312.318 10.672C311.166 10.672 310.366 9.904 310.366 8.112C310.366 6.304 311.166 5.536 312.318 5.536C313.486 5.536 314.286 6.304 314.286 8.112C314.286 9.904 313.486 10.672 312.318 10.672ZM320.323 12.176C321.459 12.176 322.227 11.648 322.563 11.152L322.003 9.552C321.779 10 321.331 10.496 320.723 10.496C320.195 10.496 319.795 10.288 319.795 9.44V5.6H322.179V4.208H319.795V2.128L318.003 3.264V4.208H316.787V5.6H318.003V9.872C318.003 11.248 318.851 12.176 320.323 12.176ZM326.713 12.16C328.441 12.16 329.497 11.376 330.089 10.48L328.985 9.328C328.697 9.984 328.089 10.688 326.729 10.688C325.497 10.688 324.681 9.936 324.585 8.544H330.153C330.185 8.384 330.217 8.048 330.217 7.76C330.217 5.6 328.921 4.048 326.585 4.048C324.393 4.048 322.873 5.664 322.873 8.112C322.873 10.544 324.393 12.16 326.713 12.16ZM326.585 5.488C327.769 5.488 328.473 6.16 328.601 7.392H324.601C324.745 6.128 325.481 5.488 326.585 5.488ZM334.863 12.16C336.511 12.16 337.807 11.392 337.807 9.856C337.807 8.736 337.167 8.032 335.423 7.584L334.479 7.344C333.423 7.072 333.007 6.864 333.007 6.304C333.007 5.776 333.471 5.488 334.159 5.488C335.167 5.488 335.999 6 336.543 6.864L337.599 5.744C337.119 4.864 335.951 4.064 334.287 4.064C332.495 4.064 331.327 4.944 331.327 6.4C331.327 7.824 332.463 8.368 333.695 8.656L334.735 8.912C335.599 9.12 336.191 9.312 336.191 9.888C336.191 10.448 335.695 10.72 334.927 10.72C333.535 10.72 332.575 9.92 332.143 9.136L331.087 10.256C331.679 11.488 333.199 12.16 334.863 12.16ZM341.017 12V9.504L342.185 8.352L344.457 12H346.553L343.401 7.28L346.553 4.208H344.361L342.233 6.288L340.953 7.696L341.017 6.192V1.28H339.225V12H341.017Z" fill="black"/>
</svg>
