<svg width="333" height="15" viewBox="0 0 333 15" fill="none" xmlns="http://www.w3.org/2000/svg">
<path d="M4.12 12.16C6.968 12.16 8.216 10.688 8.216 7.52V1.28H6.84V7.52C6.84 9.888 6.104 10.832 4.136 10.832C2.2 10.832 1.448 9.888 1.448 7.52V1.28H0.056V7.52C0.056 10.688 1.336 12.16 4.12 12.16ZM12.1393 12V1.28H10.7473V12H12.1393ZM20.5074 12.176C21.5794 12.176 22.3154 11.68 22.6514 11.152L22.1874 9.776C21.9794 10.256 21.4994 10.832 20.8114 10.832C20.2034 10.832 19.7394 10.592 19.7394 9.6V5.344H22.2834V4.256H19.7394V2.24L18.3474 3.264V4.256H17.0994V5.344H18.3474V10.016C18.3474 11.344 19.2434 12.176 20.5074 12.176ZM26.7739 12.16C28.4539 12.16 29.5259 11.376 30.1019 10.448L29.2539 9.488C28.9499 10.16 28.3259 11.008 26.7739 11.008C25.3979 11.008 24.4859 10.08 24.4059 8.448H30.1499C30.1819 8.304 30.2139 8.064 30.2139 7.824C30.2139 5.552 28.8859 4.096 26.6939 4.096C24.5659 4.096 23.0619 5.68 23.0619 8.128C23.0619 10.592 24.5819 12.16 26.7739 12.16ZM26.6939 5.264C27.9899 5.264 28.8219 6.016 28.9659 7.44H24.4379C24.6139 6 25.4459 5.264 26.6939 5.264ZM32.071 12L33.415 9.984L34.167 8.848L34.919 9.984L36.215 12H37.831L35.207 8.048L37.943 4.256H36.343L34.279 7.376L32.263 4.256H30.663L33.239 8.096L30.471 12H32.071ZM41.3668 12.176C42.4388 12.176 43.1748 11.68 43.5108 11.152L43.0468 9.776C42.8388 10.256 42.3588 10.832 41.6708 10.832C41.0628 10.832 40.5988 10.592 40.5988 9.6V5.344H43.1428V4.256H40.5988V2.24L39.2068 3.264V4.256H37.9588V5.344H39.2068V10.016C39.2068 11.344 40.1028 12.176 41.3668 12.176ZM51.2984 12.16C52.8024 12.16 54.1144 11.472 54.1144 9.936C54.1144 8.864 53.5384 8.144 51.7944 7.728L50.8024 7.472C49.7464 7.216 49.2344 6.976 49.2344 6.288C49.2344 5.632 49.8104 5.28 50.6104 5.28C51.7144 5.28 52.4504 5.856 52.8344 6.768L53.8904 5.984C53.4584 4.96 52.3224 4.096 50.6904 4.096C49.0104 4.096 47.9224 4.96 47.9224 6.368C47.9224 7.792 49.1224 8.32 50.2264 8.576L51.2504 8.816C52.1624 9.024 52.8664 9.248 52.8664 9.952C52.8664 10.64 52.2584 10.992 51.3464 10.992C49.8104 10.992 48.9624 10.112 48.6904 9.232L47.6824 10.016C48.2104 11.456 49.6824 12.16 51.2984 12.16ZM58.148 12.176C59.22 12.176 59.956 11.68 60.292 11.152L59.828 9.776C59.62 10.256 59.14 10.832 58.452 10.832C57.844 10.832 57.38 10.592 57.38 9.6V5.344H59.924V4.256H57.38V2.24L55.988 3.264V4.256H54.74V5.344H55.988V10.016C55.988 11.344 56.884 12.176 58.148 12.176ZM62.3486 14.528C63.4366 14.528 64.3006 14.064 64.7966 12.64L67.7726 4.256H66.2846L64.6366 9.232L64.0926 10.896L63.5486 9.232L61.8846 4.256H60.3966L63.0046 11.584L63.8686 11.568L63.7086 12.064C63.4046 13.008 62.9886 13.312 62.3646 13.312C61.6286 13.312 61.2286 12.848 60.8606 12.224L60.1086 13.28C60.4446 13.92 61.2446 14.528 62.3486 14.528ZM70.3074 12V1.28H68.9154V12H70.3074ZM75.6958 12.16C77.3758 12.16 78.4478 11.376 79.0238 10.448L78.1758 9.488C77.8718 10.16 77.2478 11.008 75.6958 11.008C74.3198 11.008 73.4078 10.08 73.3278 8.448H79.0718C79.1038 8.304 79.1358 8.064 79.1358 7.824C79.1358 5.552 77.8078 4.096 75.6158 4.096C73.4878 4.096 71.9838 5.68 71.9838 8.128C71.9838 10.592 73.5038 12.16 75.6958 12.16ZM75.6158 5.264C76.9118 5.264 77.7438 6.016 77.8878 7.44H73.3598C73.5358 6 74.3678 5.264 75.6158 5.264ZM91.9346 12V10.768H87.5026L86.1906 10.864L87.3426 9.888L89.0066 8.32C89.9826 7.392 91.6626 5.792 91.6626 4.032C91.6626 2.384 90.7186 1.12 88.6226 1.12C86.1586 1.12 84.4786 2.816 84.7026 4.928L85.9986 5.744C85.7266 3.616 86.7346 2.464 88.5266 2.464C89.7426 2.464 90.2226 3.264 90.2226 4.128C90.2226 5.312 89.3106 6.304 88.1426 7.456L84.6386 10.912V12H91.9346ZM97.8355 12.64L101.996 0.639999H100.748L96.5875 12.64H97.8355ZM109.763 12V1.28H108.595C108.083 1.984 107.315 2.24 106.451 2.24V3.2H108.371V12H109.763ZM115.741 12.16C117.933 12.16 119.437 10.576 119.437 8.496C119.437 6.544 118.477 4.96 116.285 4.96C114.541 4.96 113.373 6 113.197 7.808V6.64C113.197 3.296 114.461 2.464 115.757 2.464C116.893 2.464 117.693 3.168 118.093 4.24L119.293 3.248C118.669 1.984 117.485 1.12 115.869 1.12C113.229 1.12 111.725 3.008 111.725 6.496V6.688C111.725 10.928 113.405 12.16 115.741 12.16ZM115.709 10.832C114.269 10.832 113.357 10.096 113.357 8.352C113.357 6.96 114.349 6.256 115.741 6.256C117.277 6.256 117.965 7.168 117.965 8.576C117.965 9.856 117.101 10.832 115.709 10.832ZM124.934 7.92V6.944H121.158V7.92H124.934ZM133.966 12V10.768H129.534L128.222 10.864L129.374 9.888L131.038 8.32C132.014 7.392 133.694 5.792 133.694 4.032C133.694 2.384 132.75 1.12 130.654 1.12C128.19 1.12 126.51 2.816 126.734 4.928L128.03 5.744C127.758 3.616 128.766 2.464 130.558 2.464C131.774 2.464 132.254 3.264 132.254 4.128C132.254 5.312 131.342 6.304 130.174 7.456L126.67 10.912V12H133.966ZM139.589 12.16C142.517 12.16 143.893 9.744 143.893 6.624C143.893 3.536 142.517 1.12 139.589 1.12C136.645 1.12 135.269 3.536 135.269 6.624C135.269 9.744 136.645 12.16 139.589 12.16ZM139.605 10.832C137.477 10.832 136.741 9.088 136.741 6.624C136.741 4.192 137.477 2.432 139.605 2.432C141.717 2.432 142.437 4.192 142.437 6.624C142.437 9.088 141.717 10.832 139.605 10.832ZM150.827 12V6.08L150.651 3.184L151.851 5.84L154.155 10.208H155.515L157.819 5.84L159.003 3.184L158.859 6.08V12H160.251V1.28H158.699L155.915 6.592L154.843 8.944L153.755 6.592L150.987 1.28H149.435V12H150.827ZM165.774 12.16C167.454 12.16 168.526 11.376 169.102 10.448L168.254 9.488C167.95 10.16 167.326 11.008 165.774 11.008C164.398 11.008 163.486 10.08 163.406 8.448H169.15C169.182 8.304 169.214 8.064 169.214 7.824C169.214 5.552 167.886 4.096 165.694 4.096C163.566 4.096 162.062 5.68 162.062 8.128C162.062 10.592 163.582 12.16 165.774 12.16ZM165.694 5.264C166.99 5.264 167.822 6.016 167.966 7.44H163.438C163.614 6 164.446 5.264 165.694 5.264ZM173.87 12.192C175.358 12.192 176.094 11.2 176.366 10.016V12H177.758V1.28H176.366V6.272C176.094 5.088 175.358 4.096 173.87 4.096C171.918 4.096 170.702 5.696 170.702 8.144C170.702 10.592 171.918 12.192 173.87 12.192ZM172.11 8.144C172.11 6.176 173.118 5.28 174.334 5.28C175.822 5.28 176.366 6.32 176.366 7.6V8.704C176.366 9.984 175.822 11.024 174.334 11.024C173.118 11.024 172.11 10.128 172.11 8.144ZM181.261 3.008V1.28H179.868V3.008H181.261ZM181.261 12V4.256H179.868V12H181.261ZM185.769 12.16C187.321 12.16 188.153 11.104 188.441 9.888V12H189.817V4.256H188.441V8.656C188.441 9.936 187.897 10.992 186.393 10.992C185.081 10.992 184.681 10.272 184.681 9.28V4.256H183.305V9.616C183.305 11.248 184.249 12.16 185.769 12.16ZM193.323 12V7.616C193.323 6.32 193.867 5.28 195.035 5.28C196.203 5.28 196.731 5.84 196.731 6.976V12H198.123V7.616C198.123 6.32 198.667 5.28 199.851 5.28C201.003 5.28 201.547 5.84 201.547 6.976V12H202.923V6.64C202.923 5.008 202.139 4.096 200.619 4.096C199.211 4.096 198.411 5.136 198.107 6.368C198.027 4.912 197.243 4.096 195.819 4.096C194.427 4.096 193.627 5.12 193.323 6.304V4.256H191.931V12H193.323ZM209.101 12.64L213.261 0.639999H212.013L207.853 12.64H209.101ZM223.012 12.128C225.38 12.128 227.012 10.896 227.764 8.816L226.196 7.664C225.86 9.264 224.868 10.416 223.028 10.416C220.82 10.416 219.78 8.832 219.78 6.624C219.78 4.4 220.82 2.832 223.028 2.832C224.868 2.832 225.86 3.968 226.196 5.584L227.764 4.432C227.012 2.336 225.38 1.12 223.012 1.12C219.716 1.12 217.86 3.536 217.86 6.624C217.86 9.712 219.716 12.128 223.012 12.128ZM230.92 12.16C232.552 12.16 233.304 10.944 233.544 9.92V10.496C233.544 11.616 234.2 12 235.032 12H236.136V10.464H235.64C235.352 10.464 235.224 10.352 235.224 10V7.072C235.224 5.152 234.136 4.048 232.2 4.048C230.472 4.048 229.256 4.944 228.648 5.776L229.72 7.056C230.168 6.24 230.984 5.632 232.024 5.632C233.096 5.632 233.448 6.16 233.512 6.944L230.904 8.048C229.64 8.544 228.872 9.216 228.872 10.32C228.872 11.44 229.64 12.16 230.92 12.16ZM230.6 10.048C230.6 9.648 230.872 9.376 231.544 9.072L233.544 8.176V9.008C233.544 10.064 232.744 10.768 231.56 10.768C230.904 10.768 230.6 10.496 230.6 10.048ZM239.299 12V9.936C239.555 11.136 240.211 12.176 241.763 12.176C243.699 12.176 244.915 10.624 244.915 8.112C244.915 5.6 243.699 4.048 241.795 4.048C240.243 4.048 239.555 5.088 239.299 6.304V1.28H237.507V12H239.299ZM239.299 8.608V7.632C239.299 6.352 239.827 5.504 241.091 5.504C242.227 5.504 243.075 6.368 243.075 8.112C243.075 9.872 242.227 10.72 241.091 10.72C239.827 10.72 239.299 9.888 239.299 8.608ZM248.174 3.104V1.28H246.382V3.104H248.174ZM248.174 12V4.208H246.382V12H248.174ZM251.861 12V7.632C251.861 6.352 252.309 5.504 253.621 5.504C254.821 5.504 255.141 6.16 255.141 7.12V12H256.949V6.576C256.949 4.96 256.021 4.048 254.501 4.048C252.949 4.048 252.149 5.104 251.861 6.336V4.208H250.069V12H251.861ZM262.213 12.16C263.941 12.16 264.997 11.376 265.589 10.48L264.485 9.328C264.197 9.984 263.589 10.688 262.229 10.688C260.997 10.688 260.181 9.936 260.085 8.544H265.653C265.685 8.384 265.717 8.048 265.717 7.76C265.717 5.6 264.421 4.048 262.085 4.048C259.893 4.048 258.373 5.664 258.373 8.112C258.373 10.544 259.893 12.16 262.213 12.16ZM262.085 5.488C263.269 5.488 263.973 6.16 264.101 7.392H260.101C260.245 6.128 260.981 5.488 262.085 5.488ZM269.963 12.176C271.099 12.176 271.867 11.648 272.203 11.152L271.643 9.552C271.419 10 270.971 10.496 270.363 10.496C269.835 10.496 269.435 10.288 269.435 9.44V5.6H271.819V4.208H269.435V2.128L267.643 3.264V4.208H266.427V5.6H267.643V9.872C267.643 11.248 268.491 12.176 269.963 12.176ZM280.807 12.128C283.191 12.128 284.551 10.384 284.631 7.968L285.127 12H286.279V6.448H281.383V7.968H284.471C284.087 9.456 283.287 10.432 281.479 10.432C279.367 10.432 278.327 8.896 278.327 6.624C278.327 4.4 279.351 2.832 281.591 2.832C283.319 2.832 284.343 3.888 284.663 5.264L286.231 4.144C285.495 2.208 283.831 1.12 281.575 1.12C278.247 1.12 276.407 3.472 276.407 6.624C276.407 10.032 278.055 12.128 280.807 12.128ZM289.939 12V7.712C289.939 6.416 290.771 5.392 291.667 5.392C292.195 5.392 292.403 5.744 292.403 6.176C292.403 6.624 292.163 7.136 291.907 7.392H293.747C293.891 7.152 294.099 6.592 294.099 5.84C294.099 4.688 293.379 4.048 292.403 4.048C291.011 4.048 290.227 5.168 289.939 6.416V4.208H288.147V12H289.939ZM298.38 12.16C300.652 12.16 302.188 10.528 302.188 8.112C302.188 5.68 300.652 4.048 298.38 4.048C296.14 4.048 294.604 5.68 294.604 8.112C294.604 10.528 296.14 12.16 298.38 12.16ZM298.396 10.672C297.244 10.672 296.444 9.904 296.444 8.112C296.444 6.304 297.244 5.536 298.396 5.536C299.564 5.536 300.364 6.304 300.364 8.112C300.364 9.904 299.564 10.672 298.396 10.672ZM306.401 12.176C307.537 12.176 308.305 11.648 308.641 11.152L308.081 9.552C307.857 10 307.409 10.496 306.801 10.496C306.273 10.496 305.873 10.288 305.873 9.44V5.6H308.257V4.208H305.873V2.128L304.081 3.264V4.208H302.865V5.6H304.081V9.872C304.081 11.248 304.929 12.176 306.401 12.176ZM312.791 12.16C314.519 12.16 315.575 11.376 316.167 10.48L315.063 9.328C314.775 9.984 314.167 10.688 312.807 10.688C311.575 10.688 310.759 9.936 310.663 8.544H316.231C316.263 8.384 316.295 8.048 316.295 7.76C316.295 5.6 314.999 4.048 312.663 4.048C310.471 4.048 308.951 5.664 308.951 8.112C308.951 10.544 310.471 12.16 312.791 12.16ZM312.663 5.488C313.847 5.488 314.551 6.16 314.679 7.392H310.679C310.823 6.128 311.559 5.488 312.663 5.488ZM320.941 12.16C322.589 12.16 323.885 11.392 323.885 9.856C323.885 8.736 323.245 8.032 321.501 7.584L320.557 7.344C319.501 7.072 319.085 6.864 319.085 6.304C319.085 5.776 319.549 5.488 320.237 5.488C321.245 5.488 322.077 6 322.621 6.864L323.677 5.744C323.197 4.864 322.029 4.064 320.365 4.064C318.573 4.064 317.405 4.944 317.405 6.4C317.405 7.824 318.541 8.368 319.773 8.656L320.813 8.912C321.677 9.12 322.269 9.312 322.269 9.888C322.269 10.448 321.773 10.72 321.005 10.72C319.613 10.72 318.653 9.92 318.221 9.136L317.165 10.256C317.757 11.488 319.277 12.16 320.941 12.16ZM327.095 12V9.504L328.263 8.352L330.535 12H332.631L329.479 7.28L332.631 4.208H330.439L328.311 6.288L327.031 7.696L327.095 6.192V1.28H325.303V12H327.095Z" fill="black"/>
</svg>
